<svg width="177" height="64" viewBox="0 0 177 64" fill="none" xmlns="http://www.w3.org/2000/svg">
<g clip-path="url(#clip0_51_0)" filter="url(#filter0_d_51_0)">
<path d="M24.7271 0.925781H26.2237C31.4197 1.03825 36.5309 3.11896 40.2019 6.80237C38.8465 8.18014 37.4628 9.50167 36.1356 10.8794C34.0741 9.02367 31.5891 7.58967 28.8782 7.08355C24.8683 6.24002 20.5477 6.9992 17.1873 9.27673C13.5163 11.6667 11.0313 15.7157 10.4947 20.0458C9.90171 24.3197 11.116 28.8185 13.9116 32.1364C16.5943 35.3699 20.6889 37.3944 24.9247 37.535C28.8782 37.7599 33.001 36.5509 35.8814 33.7953C38.1405 31.8552 39.1853 28.9029 39.5242 26.0349C34.8366 26.0349 30.1489 26.063 25.4613 26.0349V20.2426H45.2002C46.2168 26.4566 44.7484 33.4579 40.0043 37.9005C36.8415 41.0497 32.4645 42.9055 28.0028 43.271C23.6822 43.6928 19.2205 42.8773 15.38 40.7966C10.7771 38.3504 7.10607 34.2171 5.29878 29.3527C3.60446 24.882 3.57622 19.8209 5.15759 15.322C6.59777 11.2168 9.36517 7.58967 12.9233 5.05908C16.3402 2.55661 20.4913 1.17884 24.7271 0.925781Z" fill="#CFCFDE"/>
<path d="M137.965 2.38678H144.008V42.5388C142.003 42.5388 139.97 42.5669 137.965 42.5107C137.993 29.1548 137.965 15.7708 137.965 2.38678Z" fill="#CFCFDE"/>
<path d="M58.6421 16.305C62.3696 15.6021 66.4077 16.3894 69.4858 18.6107C72.2814 20.5789 74.2299 23.6719 74.8229 27.046C75.5854 30.9543 74.6252 35.2282 72.0837 38.3212C69.3446 41.7796 64.8546 43.6354 60.4776 43.3542C56.4677 43.1293 52.5707 41.1329 50.1987 37.8713C47.516 34.2722 46.8665 29.3235 48.3349 25.1059C49.8033 20.5789 53.9544 17.1204 58.6421 16.305ZM59.4892 21.6474C57.9643 22.041 56.5524 22.9127 55.5358 24.1499C52.7966 27.4115 52.9661 32.7257 55.9876 35.7624C57.7102 37.5057 60.3082 38.3212 62.7085 37.8432C64.9393 37.4495 66.8878 35.9593 67.9609 33.991C69.8246 30.645 69.2881 26.0337 66.436 23.4188C64.6005 21.7317 61.9178 21.0288 59.4892 21.6474Z" fill="#CFCFDE"/>
<path d="M88.5752 16.305C92.8392 15.4896 97.4986 16.6706 100.69 19.651C105.886 24.2904 106.45 32.9788 102.017 38.3212C99.3342 41.6953 94.9854 43.551 90.6931 43.3542C86.5985 43.2417 82.5603 41.2173 80.1318 37.8713C77.3926 34.1879 76.7996 29.1267 78.3527 24.8247C79.9059 20.4383 83.9723 17.0923 88.5752 16.305ZM89.4223 21.6474C87.8975 22.041 86.4855 22.9127 85.4689 24.1217C82.758 27.3271 82.871 32.557 85.7795 35.6219C87.5021 37.4495 90.1848 38.3493 92.6698 37.8432C94.8724 37.4214 96.8491 35.9593 97.9222 33.991C99.7577 30.6169 99.2212 26.0056 96.3408 23.3907C94.5053 21.7036 91.8226 21.0288 89.4223 21.6474Z" fill="#CFCFDE"/>
<path d="M113.962 17.9359C117.209 15.9114 121.53 15.349 125.031 17.0923C126.133 17.5703 127.036 18.3857 127.912 19.2012C127.94 18.442 127.912 17.6547 127.94 16.8674C129.832 16.8955 131.724 16.8674 133.644 16.8955V41.6953C133.616 45.4349 132.656 49.3995 129.945 52.1269C126.98 55.1355 122.434 56.0634 118.339 55.4448C113.962 54.7981 110.15 51.6208 108.455 47.6C110.15 46.7846 111.929 46.1379 113.679 45.3787C114.668 47.6843 116.673 49.6526 119.186 50.1025C121.699 50.5523 124.608 49.9338 126.246 47.8531C127.997 45.7161 127.997 42.7919 127.912 40.1769C126.613 41.4422 125.116 42.5669 123.309 42.9887C119.384 44.0853 115.063 42.7356 112.042 40.0926C108.992 37.4495 107.185 33.3725 107.354 29.3235C107.439 24.7403 110.037 20.3259 113.962 17.9359ZM119.807 21.5349C118.085 21.8161 116.475 22.7721 115.374 24.0936C112.719 27.2428 112.719 32.2759 115.402 35.3688C116.927 37.1965 119.384 38.2087 121.756 37.9556C123.987 37.7307 126.048 36.3248 127.149 34.3847C129.013 31.0949 128.703 26.6242 126.189 23.7562C124.636 21.9848 122.151 21.1132 119.807 21.5349Z" fill="#CFCFDE"/>
<path d="M151.265 19.3698C154.654 16.2207 159.878 15.1522 164.227 16.8111C168.35 18.3576 170.976 22.266 172.303 26.2868C166.175 28.8174 160.076 31.3199 153.948 33.8505C154.795 35.4532 156.094 36.9153 157.845 37.5058C160.302 38.3774 163.239 38.0681 165.3 36.4373C166.119 35.8187 166.768 35.0033 167.39 34.216C168.943 35.2563 170.496 36.2686 172.049 37.3089C169.846 40.5987 166.147 42.9043 162.166 43.2699C157.76 43.8041 153.073 42.1171 150.22 38.6867C145.533 33.2881 145.985 24.2342 151.265 19.3698ZM154.287 24.5716C153.327 25.9494 152.931 27.6364 152.96 29.2954C157.054 27.6083 161.149 25.9213 165.244 24.2061C164.566 22.6315 162.928 21.6755 161.262 21.4224C158.579 20.9444 155.784 22.3784 154.287 24.5716Z" fill="#CFCFDE"/>
</g>
<defs>
<filter id="filter0_d_51_0" x="0" y="0.9198" width="176.303" height="62.6985" filterUnits="userSpaceOnUse" color-interpolation-filters="sRGB">
<feFlood flood-opacity="0" result="BackgroundImageFix"/>
<feColorMatrix in="SourceAlpha" type="matrix" values="0 0 0 0 0 0 0 0 0 0 0 0 0 0 0 0 0 0 127 0" result="hardAlpha"/>
<feOffset dy="4"/>
<feGaussianBlur stdDeviation="2"/>
<feComposite in2="hardAlpha" operator="out"/>
<feColorMatrix type="matrix" values="0 0 0 0 0 0 0 0 0 0 0 0 0 0 0 0 0 0 0.25 0"/>
<feBlend mode="normal" in2="BackgroundImageFix" result="effect1_dropShadow_51_0"/>
<feBlend mode="normal" in="SourceGraphic" in2="effect1_dropShadow_51_0" result="shape"/>
</filter>
<clipPath id="clip0_51_0">
<rect width="168.303" height="54.6985" fill="white" transform="translate(4 0.9198)"/>
</clipPath>
</defs>
</svg>
